<svg xmlns="http://www.w3.org/2000/svg" width="800" height="600" viewBox="0 0 800 600">
<defs>
<linearGradient id="androidGradient" x1="0%" y1="0%" x2="0%" y2="100%">
<stop offset="0%" style="stop-color:#f8f9fa;stop-opacity:1" />
<stop offset="100%" style="stop-color:#e9ecef;stop-opacity:1" />
</linearGradient>
<linearGradient id="iosGradient" x1="0%" y1="0%" x2="0%" y2="100%">
<stop offset="0%" style="stop-color:#ffffff;stop-opacity:1" />
<stop offset="100%" style="stop-color:#f1f3f5;stop-opacity:1" />
</linearGradient>
<filter id="shadow" x="-10%" y="-10%" width="120%" height="120%">
<feGaussianBlur in="SourceAlpha" stdDeviation="5" />
<feOffset dx="2" dy="5" result="offsetblur" />
<feFlood flood-color="#000000" flood-opacity="0.1" />
<feComposite in2="offsetblur" operator="in" />
<feMerge>
<feMergeNode />
<feMergeNode in="SourceGraphic" />
</feMerge>
</filter>
</defs>

<ellipse cx="400" cy="300" rx="350" ry="250" fill="#e7f1ff" fill-opacity="0.5" />

<g id="AndroidPhone" transform="translate(150, 100)" filter="url(#shadow)">
<rect x="0" y="0" width="220" height="440" rx="30" ry="30" fill="#212529" />
<rect x="10" y="10" width="200" height="420" rx="20" ry="20" fill="url(#androidGradient)" />

<g transform="translate(100, -40)" fill="#a4c639">
    <path d="M15.3 14.7c-.5 0-.9-.4-.9-.9 0-.5.4-.9.9-.9.5 0 .9.4.9.9s-.4.9-.9.9zm-6.6 0c-.5 0-.9-.4-.9-.9 0-.5.4-.9.9-.9.5 0 .9.4.9.9s-.4.9-.9.9zM12 21.6c-1.8 0-3.5-.7-4.8-1.9-1.3-1.3-1.9-2.9-1.9-4.8s.7-3.5 1.9-4.8C8.5 8.9 10.2 8.2 12 8.2c1.8 0 3.5.7 4.8 1.9 1.3 1.3 1.9 2.9 1.9 4.8s-.7 3.5-1.9 4.8c-1.3 1.2-3 1.9-4.8 1.9zm0-15.3c-2.4 0-4.6.9-6.3 2.6s-2.6 3.9-2.6 6.3c0 2.4.9 4.6 2.6 6.3s3.9 2.6 6.3 2.6 4.6-.9 6.3-2.6 2.6-3.9 2.6-6.3c0-2.4-.9-4.6-2.6-6.3S14.4 6.3 12 6.3zm0-6.3C5.4 0 0 5.4 0 12s5.4 12 12 12 12-5.4 12-12S18.6 0 12 0z"/>
</g>

<g transform="translate(60, 160) scale(0.6)">
    <path fill="#4c6ef5" d="M128 0C57.31 0 0 57.31 0 128s57.31 128 128 128 128-57.31 128-128S198.69 0 128 0zm0 224c-53.02 0-96-42.98-96-96s42.98-96 96-96 96 42.98 96 96-42.98 96-96 96z"/>
    <path fill="#4c6ef5" d="M128 64c-35.35 0-64 28.65-64 64s28.65 64 64 64 64-28.65 64-64-28.65-64-64-64zm0 96c-17.67 0-32-14.33-32-32s14.33-32 32-32 32 14.33 32 32-14.33 32-32 32z"/>
</g>
</g>

<g id="IPhone" transform="translate(430, 100)" filter="url(#shadow)">
<rect x="0" y="0" width="220" height="440" rx="35" ry="35" fill="#343a40" />
<rect x="8" y="8" width="204" height="424" rx="27" ry="27" fill="url(#iosGradient)" />

<rect x="65" y="20" width="90" height="25" rx="12.5" ry="12.5" fill="#212529" />

<g transform="translate(100, -40)" fill="#8e8e93">
    <path d="M12.03 2.15C11.39 3 10.11 3.5 9 3.5c-.15 0-.29 0-.42-.02C8.69 2.14 9.9 1 11.08 1c.14 0 .28 0 .42.02.13.36.21.73.21 1.13zm6.3 12.23c-.11.19-.22.37-.34.56-.63 1.01-1.3 2.06-2.3 2.06-.97 0-1.28-.62-2.39-.62-1.11 0-1.46.61-2.39.61-1 0-1.68-1.05-2.31-2.07-.86-1.37-1.47-3.32-1.47-5.11 0-2.8 1.63-4.29 3.39-4.29.93 0 1.69.52 2.27.52s1.42-.53 2.47-.53c.69 0 1.34.22 1.84.6-.2.13-.39.27-.58.42-1 0-1.64.63-1.64 1.54 0 .91.64 1.54 1.64 1.54h.02c.07 0 .14 0 .21.01-.2 1.34-1.03 2.92-1.95 4.38z"/>
</g>

<g transform="translate(60, 160) scale(0.6)">
    <path fill="#4c6ef5" d="M128 0C57.31 0 0 57.31 0 128s57.31 128 128 128 128-57.31 128-128S198.69 0 128 0zm0 224c-53.02 0-96-42.98-96-96s42.98-96 96-96 96 42.98 96 96-42.98 96-96 96z"/>
    <path fill="#4c6ef5" d="M128 64c-35.35 0-64 28.65-64 64s28.65 64 64 64 64-28.65 64-64-28.65-64-64-64zm0 96c-17.67 0-32-14.33-32-32s14.33-32 32-32 32 14.33 32 32-14.33 32-32 32z"/>
</g>
</g>
</svg>